<svg width="456" height="190" viewBox="0 0 456 190" fill="none" xmlns="http://www.w3.org/2000/svg">
<path d="M55.8828 129.396C72.4568 138.912 80.9676 144.153 85.8828 152.271C87.6989 152.645 88.6118 153.049 89.6328 154.896C90.5999 156.213 90.5979 156.952 89.6328 158.271L83.2578 163.521H69.0078C68.1277 163.577 67.9971 163.804 67.8828 164.271C66.4982 164.002 65.9557 163.757 62.6328 164.271C59.3036 165.924 58.9618 167.017 60.0078 169.146C60.4281 167.118 60.9491 166.386 62.6328 166.146H66.7578C67.62 167.474 67.8767 168.214 67.5078 169.521H49.8828C46.193 170.842 46.4406 172.253 46.8816 174.764L46.8828 174.771C47.6092 172.66 48.2996 171.668 50.6328 170.646H54.0078C54.312 172.568 54.7374 173.461 55.8828 174.771H77.2578C78.7337 173.981 79.4498 173.451 80.2578 172.146C81.4816 171.634 82.1351 171.668 83.2578 172.146C84.9773 173.563 86.3527 174.02 88.8828 174.771L102.008 175.146C104.03 175.083 104.635 174.615 104.633 172.896C106.978 171.879 108.291 172.665 110.633 174.771C109.838 172.181 108.846 171.054 103.133 171.396C103.388 171.003 103.308 170.841 102.758 170.646L92.6328 170.271C91.7841 170.197 91.363 170.052 90.7578 169.521C90.3273 169.334 93.739 167.1 95.2578 167.271C96.7767 167.442 100.883 170.271 100.883 170.271H115.883C117.304 169.919 117.592 169.333 117.758 168.021C120.687 167.287 121.82 167.997 123.383 170.271C123.018 167.391 122.012 166.702 119.633 166.146C113.583 166.137 105.383 165.771 104.633 165.396C103.883 165.021 100.883 162.771 100.883 162.771C99.9355 161.981 100.128 161.583 100.883 160.896L109.508 155.646C112.597 156.967 120.618 156.49 138.758 154.896C160.137 158.244 172.125 158.948 193.508 158.646C236.006 173.531 264.635 180.135 324.758 188.646C342.119 189.562 350.319 189.865 352.133 188.646C351.578 187.067 348.597 186.732 342.008 186.396C342.703 185.001 341.963 184.558 339.383 184.146C297.008 176.646 273.104 170.899 229.883 151.146C232.689 150.235 233.138 149.517 231.383 147.771C228.474 144.692 226.057 143.395 221.877 141.152L221.633 141.021C172.186 117.028 145.508 100.521 99.3828 58.8962C83.4174 44.4884 76.8828 31.8085 59.2578 14.2712C48.0439 3.11297 34.8828 -0.621613 20.2578 0.771206C12.3828 1.52118 4.13283 9.7712 4.13283 14.2712V20.2712L1.88283 22.8962C1.14454 25.1984 1.20081 26.7016 1.88283 29.6462L0.757834 30.7712C0.49215 33.2586 0.581433 35.1803 0.757834 38.6462C2.32786 43.8307 3.27523 46.6063 6.00783 49.5212L5.63283 45.3962C6.68132 45.4983 7.33075 45.7243 8.63283 46.5212C15.482 56.6928 17.3757 62.1538 18.7578 71.6462C26.6962 100.459 35.1221 112.82 55.8828 129.396Z" fill="#C8A2C8"/>
<path d="M147.4 88.8C152.627 89.9733 156.787 92.2667 159.88 95.68C163.08 99.0933 164.68 103.093 164.68 107.68C164.68 113.867 162.067 118.827 156.84 122.56C151.613 126.187 144.573 128 135.72 128H102.28L101.16 125.12C103.827 124.373 105.747 123.68 106.92 123.04C108.093 122.293 108.893 121.333 109.32 120.16C109.747 118.987 109.96 117.173 109.96 114.72V71.36C109.96 67.6267 109.64 64.9067 109 63.2C108.467 61.4933 107.133 60 105 58.72L103.08 57.6L103.72 55.52C107.133 54.4533 111.507 53.6 116.84 52.96C122.28 52.2133 127.187 51.84 131.56 51.84C140.947 51.84 148.253 53.6 153.48 57.12C158.813 60.64 161.48 65.5467 161.48 71.84C161.48 75.7867 160.2 79.2533 157.64 82.24C155.187 85.12 151.773 87.3067 147.4 88.8ZM135.56 124.48C139.4 124.48 142.547 122.933 145 119.84C147.56 116.747 148.84 112.8 148.84 108C148.84 103.093 147.187 99.0933 143.88 96C140.573 92.9067 135.88 90.8267 129.8 89.76V87.84C134.707 87.84 138.547 86.4 141.32 83.52C144.2 80.64 145.64 76.7467 145.64 71.84C145.64 66.9333 144.467 63.04 142.12 60.16C139.773 57.1733 136.627 55.68 132.68 55.68C130.333 55.68 128.52 56.48 127.24 58.08C125.96 59.5733 125.32 61.7067 125.32 64.48V110.24C125.32 114.613 126.227 118.08 128.04 120.64C129.96 123.2 132.467 124.48 135.56 124.48ZM211.755 113.44C210.262 118.133 207.648 121.973 203.915 124.96C200.288 127.947 196.395 129.44 192.235 129.44C187.542 129.44 184.075 127.947 181.835 124.96C179.595 121.973 178.475 117.387 178.475 111.2V85.12C178.475 83.6267 177.782 82.88 176.395 82.88H171.435L170.955 81.12C173.088 79.3067 175.755 77.8133 178.955 76.64C182.155 75.4667 185.302 74.88 188.395 74.88C189.782 74.88 190.848 75.2 191.595 75.84C192.448 76.48 192.875 77.3333 192.875 78.4V110.4C192.875 114.027 193.408 116.853 194.475 118.88C195.542 120.8 197.035 121.76 198.955 121.76C202.902 121.76 206.048 119.36 208.395 114.56C210.848 109.653 212.075 103.307 212.075 95.52C212.075 91.36 211.755 88.16 211.115 85.92C210.582 83.5733 209.568 81.5467 208.075 79.84L206.635 78.08L207.915 76.64L226.315 75.2V118.88C226.315 122.08 227.275 123.68 229.195 123.68C231.222 123.68 233.195 122.88 235.115 121.28L236.395 122.88C232.662 127.253 228.022 129.44 222.475 129.44C218.422 129.44 215.595 128.267 213.995 125.92C212.502 123.573 211.755 119.413 211.755 113.44ZM302.269 122.88C298.322 127.253 293.682 129.44 288.349 129.44C285.042 129.44 282.589 128.747 280.989 127.36C279.389 125.867 278.322 123.467 277.789 120.16C275.015 123.36 272.135 125.707 269.149 127.2C266.162 128.693 262.855 129.44 259.229 129.44C253.895 129.44 249.522 127.093 246.109 122.4C242.802 117.707 241.149 111.627 241.149 104.16C241.149 95.2 243.495 88.1067 248.189 82.88C252.882 77.5467 259.282 74.88 267.389 74.88C271.122 74.88 274.535 75.7333 277.629 77.44V59.68C277.629 58.1867 276.935 57.44 275.549 57.44H270.109L269.469 55.84C271.602 53.92 274.322 52.4267 277.629 51.36C280.935 50.1867 284.189 49.6 287.389 49.6C288.775 49.6 289.895 49.92 290.749 50.56C291.602 51.0933 292.029 51.8933 292.029 52.96V118.88C292.029 122.08 293.042 123.68 295.069 123.68C297.095 123.68 299.069 122.88 300.989 121.28L302.269 122.88ZM267.549 121.76C271.602 121.76 274.962 119.52 277.629 115.04V80.64C275.495 79.5733 273.149 79.04 270.589 79.04C261.629 79.04 257.149 86.7733 257.149 102.24C257.149 108.533 258.002 113.387 259.709 116.8C261.522 120.107 264.135 121.76 267.549 121.76ZM324.221 143.04C324.221 145.387 324.915 147.307 326.301 148.8C327.795 150.293 329.661 151.04 331.901 151.04C339.368 151.04 343.101 144.96 343.101 132.8V117.28C340.435 120.373 337.661 122.667 334.781 124.16C331.901 125.653 328.701 126.4 325.181 126.4C319.955 126.4 315.688 124.213 312.381 119.84C309.181 115.467 307.581 109.707 307.581 102.56C307.581 94.0267 310.195 87.3067 315.421 82.4C320.648 77.3867 327.688 74.88 336.541 74.88C338.888 74.88 341.448 75.0933 344.221 75.52C347.101 75.9467 348.861 76.2133 349.501 76.32C353.981 76.96 357.075 77.3867 358.781 77.6L360.061 78.88L358.781 80.8C357.821 82.08 357.341 83.4133 357.341 84.8V128C357.341 136.427 354.888 142.933 349.981 147.52C345.181 152.213 338.461 154.56 329.821 154.56C324.488 154.56 320.168 153.547 316.861 151.52C313.555 149.493 311.901 146.827 311.901 143.52C311.901 140.64 312.755 138.293 314.461 136.48C316.168 134.773 318.408 133.92 321.181 133.92C323.208 133.92 325.181 134.347 327.101 135.2C325.181 137.12 324.221 139.733 324.221 143.04ZM332.861 118.72C337.128 118.72 340.488 116.48 342.941 112V80.16C340.488 79.0933 338.141 78.56 335.901 78.56C331.848 78.56 328.755 80.3733 326.621 84C324.595 87.52 323.581 92.6933 323.581 99.52C323.581 105.707 324.381 110.453 325.981 113.76C327.581 117.067 329.875 118.72 332.861 118.72ZM390.215 118.88C390.215 122.08 391.228 123.68 393.255 123.68C395.282 123.68 397.255 122.88 399.175 121.28L400.455 122.88C396.508 127.253 391.868 129.44 386.535 129.44C382.695 129.44 379.922 128.48 378.215 126.56C376.508 124.533 375.655 121.28 375.655 116.8V85.12C375.655 83.6267 374.962 82.88 373.575 82.88H368.615L368.135 81.12C370.268 79.3067 372.935 77.8133 376.135 76.64C379.335 75.4667 382.535 74.88 385.735 74.88C387.015 74.88 388.082 75.2 388.935 75.84C389.788 76.48 390.215 77.3333 390.215 78.4V118.88ZM374.055 59.52C374.055 57.6 375.122 55.4667 377.255 53.12C379.388 50.7733 381.362 49.6 383.175 49.6C385.095 49.6 387.122 50.7733 389.255 53.12C391.495 55.4667 392.615 57.6 392.615 59.52C392.615 61.5467 391.495 63.7333 389.255 66.08C387.122 68.32 385.095 69.44 383.175 69.44C381.362 69.44 379.388 68.32 377.255 66.08C375.122 63.7333 374.055 61.5467 374.055 59.52ZM434.521 124.16C437.615 124.16 440.335 123.627 442.681 122.56C445.028 121.387 447.321 119.467 449.561 116.8L451.481 118.24C449.028 121.76 445.881 124.533 442.041 126.56C438.308 128.48 434.201 129.44 429.721 129.44C424.815 129.44 420.388 128.267 416.441 125.92C412.601 123.573 409.561 120.373 407.321 116.32C405.081 112.16 403.961 107.467 403.961 102.24C403.961 93.92 406.468 87.3067 411.481 82.4C416.601 77.3867 423.375 74.88 431.801 74.88C437.775 74.88 442.628 76.32 446.361 79.2C450.201 81.9733 452.121 85.6 452.121 90.08C452.121 95.2 449.935 99.3067 445.561 102.4C441.295 105.387 435.428 106.88 427.961 106.88C424.975 106.88 422.255 106.667 419.801 106.24C420.335 111.787 421.935 116.16 424.601 119.36C427.268 122.56 430.575 124.16 434.521 124.16ZM430.041 78.72C426.735 78.72 424.121 80.7467 422.201 84.8C420.388 88.7467 419.481 94.2933 419.481 101.44V104C420.655 104 422.095 103.893 423.801 103.68C428.281 103.147 431.695 101.707 434.041 99.36C436.495 96.9067 437.721 93.7067 437.721 89.76C437.721 86.56 436.975 83.9467 435.481 81.92C434.095 79.7867 432.281 78.72 430.041 78.72Z" fill="white"/>
</svg>
