<svg width="353" height="190" viewBox="0 0 353 190" fill="none" xmlns="http://www.w3.org/2000/svg">
<path d="M55.8828 129.396C72.4568 138.912 80.9676 144.153 85.8828 152.271C87.6989 152.645 88.6118 153.049 89.6328 154.896C90.5999 156.213 90.5979 156.952 89.6328 158.271L83.2578 163.521H69.0078C68.1277 163.577 67.9971 163.804 67.8828 164.271C66.4982 164.002 65.9557 163.757 62.6328 164.271C59.3036 165.924 58.9618 167.017 60.0078 169.146C60.4281 167.118 60.9491 166.386 62.6328 166.146H66.7578C67.62 167.474 67.8767 168.214 67.5078 169.521H49.8828C46.193 170.842 46.4406 172.253 46.8816 174.764L46.8828 174.771C47.6092 172.66 48.2996 171.668 50.6328 170.646H54.0078C54.312 172.568 54.7374 173.461 55.8828 174.771H77.2578C78.7337 173.981 79.4498 173.451 80.2578 172.146C81.4816 171.634 82.1351 171.668 83.2578 172.146C84.9773 173.563 86.3527 174.02 88.8828 174.771L102.008 175.146C104.03 175.083 104.635 174.615 104.633 172.896C106.978 171.879 108.291 172.665 110.633 174.771C109.838 172.181 108.846 171.054 103.133 171.396C103.388 171.003 103.308 170.841 102.758 170.646L92.6328 170.271C91.7841 170.197 91.363 170.052 90.7578 169.521C90.3273 169.334 93.739 167.1 95.2578 167.271C96.7767 167.442 100.883 170.271 100.883 170.271H115.883C117.304 169.919 117.592 169.333 117.758 168.021C120.687 167.287 121.82 167.997 123.383 170.271C123.018 167.391 122.012 166.702 119.633 166.146C113.583 166.137 105.383 165.771 104.633 165.396C103.883 165.021 100.883 162.771 100.883 162.771C99.9355 161.981 100.128 161.583 100.883 160.896L109.508 155.646C112.597 156.967 120.618 156.49 138.758 154.896C160.137 158.244 172.125 158.948 193.508 158.646C236.006 173.531 264.635 180.135 324.758 188.646C342.119 189.562 350.319 189.865 352.133 188.646C351.578 187.067 348.597 186.732 342.008 186.396C342.703 185.001 341.963 184.558 339.383 184.146C297.008 176.646 273.104 170.899 229.883 151.146C232.689 150.235 233.138 149.517 231.383 147.771C228.474 144.692 226.057 143.395 221.877 141.152L221.633 141.021C172.186 117.028 145.508 100.521 99.3828 58.8962C83.4174 44.4884 76.8828 31.8085 59.2578 14.2712C48.0439 3.11297 34.8828 -0.621613 20.2578 0.771206C12.3828 1.52118 4.13283 9.7712 4.13283 14.2712V20.2712L1.88283 22.8962C1.14454 25.1984 1.20081 26.7016 1.88283 29.6462L0.757834 30.7712C0.49215 33.2586 0.581433 35.1803 0.757834 38.6462C2.32786 43.8307 3.27523 46.6063 6.00783 49.5212L5.63283 45.3962C6.68132 45.4983 7.33075 45.7243 8.63283 46.5212C15.482 56.6928 17.3757 62.1538 18.7578 71.6462C26.6962 100.459 35.1221 112.82 55.8828 129.396Z" fill="#C8A2C8"/>
</svg>
